name rise31.4854peak64.571fall78.6902.mot
datacolumns 19
datarows 24
range 5.39997800000000 5.43831400000000
endheader
time	ground_force1_vx	ground_force1_vy	ground_force1_vz	ground_force1_px	ground_force1_py	ground_force1_pz	ground_force2_vx	ground_force2_vy	ground_force2_vz	ground_force2_px	ground_force2_py	ground_force2_pz	ground_torque1_x	ground_torque1_y	ground_torque1_z	ground_torque2_x	ground_torque2_y	ground_torque2_z	
5.39997800000000	1.35652100000000	707.91347099999996	39.10538000000000	0.20605200000000	0.00000000000000	0.08670700000000	0.00000000000000	0.00000000000000	0.00000000000000	0.00000000000000	0.00000000000000	0.00000000000000	0.00000000000000	15.63003100000000	0.00000000000000	0.00000000000000	0.00000000000000	0.00000000000000	
5.40165300000000	0.86117800000000	708.65585999999996	38.95532800000000	0.20514500000000	0.00000000000000	0.08659500000000	0.00000000000000	0.00000000000000	0.00000000000000	0.00000000000000	0.00000000000000	0.00000000000000	0.00000000000000	15.63841000000000	0.00000000000000	0.00000000000000	0.00000000000000	0.00000000000000	
5.40331600000000	0.35573100000000	709.42466700000000	38.80661600000000	0.20421900000000	0.00000000000000	0.08648500000000	0.00000000000000	0.00000000000000	0.00000000000000	0.00000000000000	0.00000000000000	0.00000000000000	0.00000000000000	15.64942600000000	0.00000000000000	0.00000000000000	0.00000000000000	0.00000000000000	
5.40497800000000	-0.15995700000000	710.21902799999998	38.65956600000000	0.20327300000000	0.00000000000000	0.08637800000000	0.00000000000000	0.00000000000000	0.00000000000000	0.00000000000000	0.00000000000000	0.00000000000000	0.00000000000000	15.66316600000000	0.00000000000000	0.00000000000000	0.00000000000000	0.00000000000000	
5.40665000000000	-0.68598900000000	711.03814499999999	38.51450400000000	0.20230800000000	0.00000000000000	0.08627400000000	0.00000000000000	0.00000000000000	0.00000000000000	0.00000000000000	0.00000000000000	0.00000000000000	0.00000000000000	15.67971600000000	0.00000000000000	0.00000000000000	0.00000000000000	0.00000000000000	
5.40831100000000	-1.22242900000000	711.88128800000004	38.37176100000000	0.20132500000000	0.00000000000000	0.08617300000000	0.00000000000000	0.00000000000000	0.00000000000000	0.00000000000000	0.00000000000000	0.00000000000000	0.00000000000000	15.69915600000000	0.00000000000000	0.00000000000000	0.00000000000000	0.00000000000000	
5.40998100000000	-1.76931000000000	712.74780199999998	38.23166600000000	0.20032400000000	0.00000000000000	0.08607500000000	0.00000000000000	0.00000000000000	0.00000000000000	0.00000000000000	0.00000000000000	0.00000000000000	0.00000000000000	15.72156500000000	0.00000000000000	0.00000000000000	0.00000000000000	0.00000000000000	
5.41164400000000	-2.32662400000000	713.63710900000001	38.09454900000000	0.19930500000000	0.00000000000000	0.08598000000000	0.00000000000000	0.00000000000000	0.00000000000000	0.00000000000000	0.00000000000000	0.00000000000000	0.00000000000000	15.74701500000000	0.00000000000000	0.00000000000000	0.00000000000000	0.00000000000000	
5.41331500000000	-2.89433200000000	714.54870900000003	37.96073600000000	0.19826900000000	0.00000000000000	0.08588900000000	0.00000000000000	0.00000000000000	0.00000000000000	0.00000000000000	0.00000000000000	0.00000000000000	0.00000000000000	15.77557300000000	0.00000000000000	0.00000000000000	0.00000000000000	0.00000000000000	
5.41497700000000	-3.47235600000000	715.48218299999996	37.83055300000000	0.19721700000000	0.00000000000000	0.08580000000000	0.00000000000000	0.00000000000000	0.00000000000000	0.00000000000000	0.00000000000000	0.00000000000000	0.00000000000000	15.80730000000000	0.00000000000000	0.00000000000000	0.00000000000000	0.00000000000000	
5.41664500000000	-4.06058700000000	716.43719499999997	37.70431800000000	0.19615000000000	0.00000000000000	0.08571500000000	0.00000000000000	0.00000000000000	0.00000000000000	0.00000000000000	0.00000000000000	0.00000000000000	0.00000000000000	15.84224900000000	0.00000000000000	0.00000000000000	0.00000000000000	0.00000000000000	
5.41831000000000	-4.65887900000000	717.41348900000003	37.58234600000000	0.19507000000000	0.00000000000000	0.08563300000000	0.00000000000000	0.00000000000000	0.00000000000000	0.00000000000000	0.00000000000000	0.00000000000000	0.00000000000000	15.88046400000000	0.00000000000000	0.00000000000000	0.00000000000000	0.00000000000000	
5.41998300000000	-5.26705400000000	718.41089699999998	37.46494200000000	0.19397600000000	0.00000000000000	0.08555400000000	0.00000000000000	0.00000000000000	0.00000000000000	0.00000000000000	0.00000000000000	0.00000000000000	0.00000000000000	15.92198300000000	0.00000000000000	0.00000000000000	0.00000000000000	0.00000000000000	
5.42165200000000	-5.88490200000000	719.42932699999994	37.35240700000000	0.19287100000000	0.00000000000000	0.08547900000000	0.00000000000000	0.00000000000000	0.00000000000000	0.00000000000000	0.00000000000000	0.00000000000000	0.00000000000000	15.96683400000000	0.00000000000000	0.00000000000000	0.00000000000000	0.00000000000000	
5.42331700000000	-6.51218100000000	720.46877400000005	37.24503100000000	0.19175500000000	0.00000000000000	0.08540700000000	0.00000000000000	0.00000000000000	0.00000000000000	0.00000000000000	0.00000000000000	0.00000000000000	0.00000000000000	16.01503400000000	0.00000000000000	0.00000000000000	0.00000000000000	0.00000000000000	
5.42497800000000	-7.14862000000000	721.52930900000001	37.14309300000000	0.19063000000000	0.00000000000000	0.08533800000000	0.00000000000000	0.00000000000000	0.00000000000000	0.00000000000000	0.00000000000000	0.00000000000000	0.00000000000000	16.06659300000000	0.00000000000000	0.00000000000000	0.00000000000000	0.00000000000000	
5.42665000000000	-7.79391900000000	722.61108000000002	37.04686400000000	0.18949600000000	0.00000000000000	0.08527200000000	0.00000000000000	0.00000000000000	0.00000000000000	0.00000000000000	0.00000000000000	0.00000000000000	0.00000000000000	16.12150900000000	0.00000000000000	0.00000000000000	0.00000000000000	0.00000000000000	
5.42831100000000	-8.44775100000000	723.71430899999996	36.95660200000000	0.18835600000000	0.00000000000000	0.08520900000000	0.00000000000000	0.00000000000000	0.00000000000000	0.00000000000000	0.00000000000000	0.00000000000000	0.00000000000000	16.17977000000000	0.00000000000000	0.00000000000000	0.00000000000000	0.00000000000000	
5.42998500000000	-9.10976000000000	724.83928700000001	36.87255500000000	0.18721100000000	0.00000000000000	0.08514900000000	0.00000000000000	0.00000000000000	0.00000000000000	0.00000000000000	0.00000000000000	0.00000000000000	0.00000000000000	16.24135300000000	0.00000000000000	0.00000000000000	0.00000000000000	0.00000000000000	
5.43165200000000	-9.77957000000000	725.98637199999996	36.79495800000000	0.18606100000000	0.00000000000000	0.08509200000000	0.00000000000000	0.00000000000000	0.00000000000000	0.00000000000000	0.00000000000000	0.00000000000000	0.00000000000000	16.30622500000000	0.00000000000000	0.00000000000000	0.00000000000000	0.00000000000000	
5.43331700000000	-10.45678000000000	727.15597900000000	36.72403300000000	0.18490900000000	0.00000000000000	0.08503800000000	0.00000000000000	0.00000000000000	0.00000000000000	0.00000000000000	0.00000000000000	0.00000000000000	0.00000000000000	16.37434200000000	0.00000000000000	0.00000000000000	0.00000000000000	0.00000000000000	
5.43497900000000	-11.14096700000000	728.34858099999997	36.65999000000000	0.18375500000000	0.00000000000000	0.08498600000000	0.00000000000000	0.00000000000000	0.00000000000000	0.00000000000000	0.00000000000000	0.00000000000000	0.00000000000000	16.44565000000000	0.00000000000000	0.00000000000000	0.00000000000000	0.00000000000000	
5.43665000000000	-11.83169000000000	729.56469800000002	36.60302700000000	0.18260100000000	0.00000000000000	0.08493700000000	0.00000000000000	0.00000000000000	0.00000000000000	0.00000000000000	0.00000000000000	0.00000000000000	0.00000000000000	16.52008300000000	0.00000000000000	0.00000000000000	0.00000000000000	0.00000000000000	
5.43831400000000	-12.52848700000000	730.80488900000000	36.55332700000000	0.18144800000000	0.00000000000000	0.08489100000000	0.00000000000000	0.00000000000000	0.00000000000000	0.00000000000000	0.00000000000000	0.00000000000000	0.00000000000000	16.59756500000000	0.00000000000000	0.00000000000000	0.00000000000000	0.00000000000000	
